<?xml version="1.0" encoding="utf-8"?>
<!-- Generator: Adobe Illustrator 15.0.2, SVG Export Plug-In  -->
<!DOCTYPE svg PUBLIC "-//W3C//DTD SVG 1.1//EN" "http://www.w3.org/Graphics/SVG/1.1/DTD/svg11.dtd" [
	<!ENTITY ns_flows "http://ns.adobe.com/Flows/1.0/">
]>
<svg version="1.1"
	 xmlns="http://www.w3.org/2000/svg" xmlns:xlink="http://www.w3.org/1999/xlink" xmlns:a="http://ns.adobe.com/AdobeSVGViewerExtensions/3.0/"
	 x="0px" y="0px" width="100px" height="61px" viewBox="0 0 100 61" enable-background="new 0 0 100 61" xml:space="preserve">
<defs>
</defs>
<path fill="#BD0926" d="M47.791,7.851v3.425h2.073h4.72v1.428h-6.793v8.311h2.073h4.72v1.428h-6.793v4.249h12.935V7.851H47.791z
	 M55.859,22.433h-0.504v-1.418h0.504c0.399,0,0.72,0.317,0.72,0.708C56.579,22.118,56.259,22.433,55.859,22.433z M55.859,12.696
	h-0.504v-1.42h0.504c0.399,0,0.72,0.317,0.72,0.711C56.579,12.377,56.259,12.696,55.859,12.696z"/>
<path fill="#BD0926" d="M0.002,29.635L0,29.292l9.066-0.072l0.003,0.343c-2.795,0.046-3.367,0.539-3.349,2.812l0.066,8.308
	c0.028,3.445,0.901,4.905,4.167,4.878c3.477-0.027,4.715-1.942,4.683-5.975l-0.053-6.646c-0.019-2.298-0.993-3.341-3.267-3.396
	l-0.004-0.342l6.69-0.053l0.002,0.342c-2.037,0.113-2.969,1.245-2.949,3.542l0.05,6.353c0.036,4.472-1.463,6.537-5.435,6.567
	c-2.535,0.021-4.317-0.649-5.348-2.034c-0.792-1.044-0.829-2.486-0.845-4.465l-0.056-7.062C3.402,30.121,2.798,29.637,0.002,29.635z
	"/>
<path fill="#BD0926" d="M17.318,44.978l0.679-0.005c1.124-0.01,1.357-0.208,1.349-1.233l-0.053-6.549
	c-0.01-1.368-0.301-1.732-1.869-1.721c-0.104,0.001-0.208,0.003-0.339,0.003l-0.002-0.342l4.023-0.129l0.025,3.176l0.105,0.023
	c0.635-2.204,1.958-3.339,3.762-3.353c2.091-0.018,3.093,1.245,3.113,3.835l0.041,4.985c0.008,1.025,0.245,1.22,1.342,1.211
	l0.732-0.005l0.002,0.342l-5.8,0.046l-0.003-0.343l0.628-0.004c1.072-0.009,1.304-0.207,1.296-1.232l-0.05-6.256
	c-0.011-1.467-0.593-2.219-1.717-2.21c-1.88,0.015-3.457,2.202-3.426,6.015l0.02,2.492c0.007,0.977,0.218,1.221,1.29,1.212
	l0.652-0.006l0.004,0.343l-5.801,0.046L17.318,44.978z"/>
<path fill="#BD0926" d="M30.358,35.367c-0.103,0.001-0.208,0.002-0.339,0.002l-0.002-0.342l4.022-0.129l0.07,8.723
	c0.007,0.977,0.219,1.22,1.29,1.212l0.653-0.005l0.003,0.342l-5.8,0.046l-0.003-0.342l0.68-0.005
	c1.123-0.01,1.357-0.207,1.348-1.232l-0.051-6.55C32.216,35.719,31.927,35.355,30.358,35.367z M34.054,31.938
	c0.004,0.709-0.541,1.202-1.272,1.208c-0.705,0.005-1.258-0.504-1.263-1.188c-0.005-0.661,0.54-1.178,1.245-1.183
	C33.468,30.77,34.048,31.278,34.054,31.938z"/>
<path fill="#BD0926" d="M37.874,37.385c-0.639-1.485-1.271-2.044-2.892-2.055l-0.002-0.342l6.271-0.05l0.002,0.342
	c-1.307,0.011-1.958,0.26-1.953,0.724c0.002,0.368,0.083,0.684,0.217,0.977l2.718,6.577l2.1-5.248
	c0.257-0.612,0.357-1.199,0.353-1.736c-0.005-0.734-0.611-1.194-1.762-1.307l-0.002-0.342l4.599-0.037l0.002,0.343
	c-1.253,0.084-2.003,1.042-2.771,2.905l-3.024,7.429l-0.392,0.003L37.874,37.385z"/>
<path fill="#BD0926" d="M52.258,45.505c-1.279,0.01-2.434-0.444-3.302-1.27c-1.186-1.114-1.825-2.623-1.836-4.163
	c-0.009-1.124,0.348-2.178,1.019-3.283c0.903-1.449,2.464-2.364,3.875-2.376c2.273-0.018,4.17,1.921,4.432,5.193l-7.264,0.059
	c-0.023,0.318-0.021,0.635-0.019,0.928c0.023,2.957,1.211,4.487,3.406,4.47c1.803-0.015,3.074-1.124,3.425-3.033l0.339-0.002
	C56.012,44.181,54.479,45.486,52.258,45.505z M51.975,39.373c1.803-0.014,2.297-0.189,2.286-1.605
	c-0.016-2.004-0.86-3.072-2.35-3.06c-1.777,0.013-2.759,1.486-2.736,4.272c0,0.122,0.001,0.269,0.003,0.416L51.975,39.373z"/>
<path fill="#BD0926" d="M57.165,35.152c-0.104,0.002-0.208,0.003-0.338,0.003l-0.003-0.341l3.97-0.13l0.024,3.078h0.131
	c0.533-2.009,1.804-3.118,3.372-3.13c1.307-0.011,2.149,0.715,2.156,1.766c0.008,0.855-0.536,1.446-1.242,1.451
	c-0.783,0.007-1.336-0.501-1.342-1.21c-0.008-1.027,1.063-1.061,1.061-1.304c-0.002-0.172-0.368-0.34-0.892-0.335
	c-1.697,0.013-3.196,2.103-3.171,5.328l0.025,3.078c0.008,0.979,0.219,1.22,1.289,1.213l0.915-0.008l0.003,0.342l-6.063,0.048
	l-0.003-0.342l0.68-0.006c1.122-0.009,1.357-0.205,1.349-1.231l-0.053-6.549C59.023,35.505,58.734,35.141,57.165,35.152z"/>
<path fill="#BD0926" d="M67.166,40.792l0.313-0.003c0.99,2.803,2.674,4.23,4.45,4.217c1.384-0.012,2.215-0.727,2.207-1.826
	c-0.008-0.952-0.562-1.486-1.794-2.015c-1.521-0.646-2.804-1.027-3.697-1.632c-1.024-0.7-1.525-1.43-1.534-2.407
	c-0.013-1.539,1.31-2.82,3.06-2.833c1.83-0.015,2.754,1.199,3.251,1.194c0.339-0.002,0.677-0.396,0.878-1.203l0.313-0.003
	l0.033,4.056l-0.313,0.002c-0.829-2.412-2.408-3.743-3.976-3.73c-1.333,0.011-2.085,0.627-2.077,1.702
	c0.009,0.953,0.588,1.584,1.794,2.063c1.441,0.575,2.698,0.932,3.591,1.463c1.209,0.724,1.842,1.573,1.851,2.575
	c0.013,1.687-1.31,2.894-3.399,2.912c-0.915,0.006-1.676-0.281-2.516-0.837c-0.446-0.29-0.763-0.556-1.076-0.553
	c-0.444,0.003-0.754,0.495-1.008,1.449l-0.313,0.002L67.166,40.792z"/>
<path fill="#BD0926" d="M76.214,35.002c-0.104,0-0.21,0.001-0.341,0.002l-0.002-0.342l4.023-0.13l0.068,8.724
	c0.009,0.977,0.22,1.22,1.291,1.211l0.653-0.005l0.003,0.342l-5.801,0.047l-0.003-0.342l0.68-0.006
	c1.124-0.009,1.357-0.207,1.349-1.232l-0.052-6.549C78.072,35.354,77.781,34.989,76.214,35.002z M79.907,31.571
	c0.006,0.71-0.539,1.203-1.271,1.209c-0.706,0.006-1.258-0.503-1.264-1.187c-0.005-0.661,0.539-1.179,1.244-1.185
	C79.324,30.404,79.901,30.913,79.907,31.571z"/>
<path fill="#BD0926" d="M87.526,44.612c1.411-0.01,2.212-1.215,2.193-3.414c-0.001-0.098-0.002-0.195-0.002-0.294l0.392-0.003
	c0,0.099,0.001,0.196,0.002,0.294c0.021,2.614-1.04,3.894-3.208,3.911c-2.039,0.016-2.752-1.053-2.771-3.448l-0.052-6.427
	l-2.273,0.019l-0.003-0.464c2.191-0.359,3.381-1.908,3.491-4.623l0.573-0.004l0.036,4.423l3.345-0.026l0.006,0.635l-3.345,0.027
	l0.056,7.013C85.979,43.868,86.324,44.622,87.526,44.612z"/>
<path fill="#BD0926" d="M95.813,45.157c-1.28,0.011-2.434-0.444-3.303-1.269c-1.185-1.114-1.823-2.625-1.837-4.164
	c-0.008-1.124,0.35-2.178,1.02-3.283c0.903-1.448,2.464-2.365,3.875-2.376c2.272-0.019,4.17,1.921,4.432,5.194l-7.264,0.058
	c-0.023,0.317-0.021,0.635-0.02,0.929c0.023,2.956,1.212,4.486,3.406,4.469c1.803-0.014,3.074-1.125,3.426-3.033l0.34-0.003
	C99.566,43.833,98.034,45.14,95.813,45.157z M95.529,39.026c1.803-0.016,2.299-0.19,2.286-1.607
	c-0.015-2.003-0.859-3.071-2.349-3.06c-1.778,0.014-2.759,1.487-2.736,4.272c0.002,0.123,0.002,0.27,0.003,0.417L95.529,39.026z
	 M94.537,32.729l-0.627,0.006l3.055-3.667c0.338-0.394,0.597-0.616,0.91-0.618c0.393-0.002,0.708,0.287,0.711,0.63
	c0.002,0.292-0.205,0.514-0.595,0.835L94.537,32.729z"/>
<path fill="#A38977" d="M30.165,54.1v4.126c0,2.011,0.537,2.387,3.09,2.387v0.293h-7.973v-0.293c2.396-0.021,2.912-0.44,2.912-2.387
	v-8.503c0-1.947-0.515-2.366-2.912-2.387v-0.294h6.696c4.5,0,6.897,1.424,6.897,3.561c0,2.136-2.195,3.497-6.472,3.497H30.165z
	 M32.001,53.807c3.023,0,4.457-0.839,4.457-3.12c0-2.367-1.412-3.351-4.413-3.351c-1.814,0-1.881,0.125-1.881,1.569v4.901H32.001z"
	/>
<path fill="#A38977" d="M43.82,52.612c1.276,1.026,1.993,2.492,1.993,3.938c0,1.444-0.717,2.89-1.993,3.916
	c-0.672,0.544-1.478,0.816-2.329,0.816s-1.657-0.272-2.33-0.816c-1.253-1.026-1.993-2.472-1.993-3.916
	c0-1.445,0.717-2.911,1.993-3.938c0.673-0.544,1.457-0.817,2.33-0.817C42.364,51.795,43.148,52.068,43.82,52.612z M38.938,56.529
	c0,2.995,0.828,4.502,2.553,4.502c1.725,0,2.553-1.507,2.553-4.502c0-3.017-0.828-4.482-2.553-4.482
	C39.767,52.047,38.938,53.513,38.938,56.529z"/>
<path fill="#A38977" d="M45.826,52.466c-0.09,0-0.18,0-0.292,0v-0.293l3.449-0.084v7.477c0,0.838,0.179,1.047,1.097,1.047h0.561
	v0.293h-4.973v-0.293h0.583c0.962,0,1.164-0.167,1.164-1.047v-5.612C47.415,52.78,47.168,52.466,45.826,52.466z M49.028,49.058
	c0,0.606-0.47,1.026-1.097,1.026c-0.605,0-1.075-0.44-1.075-1.026c0-0.566,0.47-1.005,1.075-1.005
	C48.534,48.053,49.028,48.491,49.028,49.058z"/>
<path fill="#A38977" d="M55.453,60.779c1.21,0,1.905-1.025,1.905-2.91c0-0.084,0-0.167,0-0.251h0.336c0,0.084,0,0.167,0,0.251
	c0,2.24-0.919,3.329-2.778,3.329c-1.746,0-2.351-0.921-2.351-2.973v-5.508h-1.949v-0.398c1.883-0.293,2.912-1.612,3.023-3.937h0.493
	v3.79H57v0.545h-2.867v6.009C54.133,60.131,54.424,60.779,55.453,60.779z"/>
<path fill="#A38977" d="M58.521,52.466c-0.091,0-0.18,0-0.293,0v-0.293l3.449-0.084v7.477c0,0.838,0.18,1.047,1.099,1.047h0.56
	v0.293h-4.973v-0.293h0.583c0.963,0,1.164-0.167,1.164-1.047v-5.612C60.11,52.78,59.864,52.466,58.521,52.466z M61.722,49.058
	c0,0.606-0.47,1.026-1.096,1.026c-0.604,0-1.075-0.44-1.075-1.026c0-0.566,0.471-1.005,1.075-1.005S61.722,48.491,61.722,49.058z"/>
<path fill="#A38977" d="M67.361,61.304c-1.098,0-2.082-0.398-2.822-1.11c-1.007-0.963-1.544-2.262-1.544-3.58
	c0-0.964,0.313-1.864,0.895-2.807c0.784-1.235,2.128-2.012,3.337-2.012c1.949,0,3.562,1.677,3.763,4.482h-6.226
	c-0.021,0.272-0.021,0.544-0.021,0.796c0,2.534,1.007,3.854,2.888,3.854c1.546,0,2.644-0.942,2.956-2.575h0.291
	C70.586,60.193,69.266,61.304,67.361,61.304z M67.159,56.047c1.546,0,1.972-0.146,1.972-1.361c0-1.718-0.717-2.639-1.993-2.639
	c-1.522,0-2.374,1.257-2.374,3.645c0,0.104,0,0.229,0,0.355H67.159z"/>
<path fill="#A38977" d="M71.638,52.466c-0.091,0-0.18,0-0.292,0v-0.293l3.404-0.084v2.639h0.112
	c0.471-1.717,1.567-2.659,2.912-2.659c1.119,0,1.836,0.628,1.836,1.528c0,0.733-0.47,1.236-1.074,1.236
	c-0.673,0-1.143-0.44-1.143-1.048c0-0.88,0.918-0.9,0.918-1.11c0-0.146-0.313-0.293-0.762-0.293c-1.455,0-2.754,1.78-2.754,4.545
	v2.639c0,0.838,0.179,1.047,1.097,1.047h0.784v0.293h-5.195v-0.293h0.582c0.963,0,1.165-0.167,1.165-1.047v-5.612
	C73.229,52.78,72.981,52.466,71.638,52.466z"/>
<path fill="#A38977" d="M80.555,57.366h0.269c0.828,2.408,2.262,3.644,3.785,3.644c1.187,0,1.903-0.606,1.903-1.55
	c0-0.815-0.47-1.277-1.522-1.738c-1.3-0.564-2.397-0.9-3.158-1.424c-0.873-0.606-1.298-1.235-1.298-2.073
	c0-1.319,1.141-2.407,2.642-2.407c1.567,0,2.352,1.047,2.776,1.047c0.291,0,0.583-0.336,0.761-1.026h0.27v3.476h-0.27
	c-0.693-2.073-2.036-3.225-3.381-3.225c-1.143,0-1.791,0.523-1.791,1.445c0,0.816,0.492,1.361,1.522,1.779
	c1.231,0.503,2.308,0.817,3.068,1.277c1.029,0.629,1.567,1.362,1.567,2.22c0,1.446-1.143,2.472-2.934,2.472
	c-0.783,0-1.434-0.251-2.149-0.733c-0.381-0.25-0.649-0.48-0.918-0.48c-0.381,0-0.65,0.418-0.874,1.235h-0.269V57.366z"/>
<path fill="#BD0926" d="M49.494,4.789c0-0.002,0-0.003,0-0.004h0.917c0.002-0.018,0.006-0.051,0.006-0.1V4.526V4.375
	c0-0.048-0.004-0.082-0.006-0.103c-0.035-0.003-0.071-0.005-0.116-0.003c-0.045,0.002-0.086,0.003-0.128,0.006
	c-0.041,0.003-0.079,0.001-0.115-0.002c-0.034-0.003-0.061-0.018-0.076-0.044c-0.027-0.116-0.017-0.215,0.028-0.297
	c0.047-0.084,0.106-0.15,0.183-0.197c0.075-0.043,0.156-0.07,0.245-0.076c0.092-0.006,0.168,0.009,0.234,0.05
	c0.067,0.04,0.113,0.102,0.137,0.187c0.026,0.086,0.014,0.196-0.037,0.333c0.188-0.008,0.339-0.058,0.453-0.156
	c0.112-0.095,0.194-0.209,0.243-0.343c0.049-0.133,0.063-0.275,0.048-0.427c-0.018-0.152-0.065-0.287-0.142-0.406
	c-0.076-0.119-0.186-0.212-0.318-0.28c-0.135-0.071-0.296-0.086-0.484-0.055c-0.168,0.031-0.308,0.101-0.413,0.213
	c-0.106,0.113-0.193,0.248-0.262,0.405c-0.069,0.158-0.123,0.333-0.16,0.524c-0.042,0.191-0.081,0.38-0.115,0.568h-0.196
	c-0.032-0.15-0.042-0.297-0.027-0.439c0.014-0.145,0.041-0.288,0.083-0.427c0.042-0.143,0.092-0.283,0.149-0.423
	c0.059-0.139,0.115-0.277,0.172-0.417c0.057-0.138,0.104-0.278,0.146-0.416c0.037-0.14,0.061-0.279,0.069-0.423
	c0.01-0.178-0.01-0.347-0.051-0.51c-0.044-0.163-0.105-0.316-0.181-0.462C49.7,0.61,49.61,0.476,49.505,0.351
	C49.402,0.224,49.292,0.11,49.177,0c-0.117,0.11-0.227,0.224-0.331,0.351c-0.105,0.125-0.196,0.259-0.271,0.404
	c-0.079,0.146-0.138,0.299-0.181,0.462c-0.043,0.163-0.062,0.333-0.053,0.51c0.008,0.214,0.054,0.423,0.137,0.631
	c0.082,0.208,0.167,0.417,0.254,0.625c0.083,0.211,0.153,0.423,0.206,0.634c0.052,0.212,0.052,0.43,0,0.655h-0.199
	c-0.038-0.188-0.075-0.376-0.115-0.568s-0.094-0.366-0.162-0.524c-0.069-0.157-0.156-0.292-0.261-0.405
	c-0.107-0.113-0.246-0.182-0.417-0.213c-0.185-0.032-0.346-0.016-0.483,0.055c-0.134,0.067-0.241,0.161-0.316,0.28
	c-0.077,0.119-0.123,0.253-0.141,0.406c-0.016,0.151,0,0.294,0.046,0.427c0.049,0.133,0.128,0.248,0.243,0.343
	c0.115,0.098,0.265,0.147,0.454,0.156c-0.055-0.137-0.069-0.247-0.042-0.333c0.028-0.084,0.076-0.147,0.142-0.187
	c0.065-0.042,0.144-0.057,0.234-0.05c0.087,0.006,0.172,0.033,0.25,0.076c0.077,0.047,0.137,0.112,0.181,0.197
	c0.043,0.082,0.054,0.181,0.034,0.297c-0.017,0.026-0.042,0.041-0.078,0.044c-0.035,0.004-0.075,0.005-0.116,0.002
	c-0.042-0.002-0.083-0.004-0.127-0.006c-0.043-0.001-0.082,0-0.116,0.003c-0.004,0.021-0.005,0.055-0.008,0.103
	c-0.002,0.047-0.004,0.1-0.004,0.151c0,0.056,0.002,0.108,0.004,0.158c0.003,0.049,0.004,0.082,0.008,0.1h0.911
	c0,0.001-0.001,0.002-0.001,0.004H49.494z"/>
<path fill="#A38977" d="M48.59,6.753c-0.002-0.143,0.195-0.258,0.195-0.258C48.122,6.336,47.67,6.531,47.3,6.889
	c-0.134-0.207-0.47-0.442-1.32,0.079c-0.491,0.3-0.84,0.982-1.077,1.644c-0.703,1.234-1.352,1.576-1.78,1.641
	c-0.291,0.006-0.46-0.04-0.46-0.04c-0.169-0.102-0.424-0.739-0.424-0.739c-0.421,0.749-2.145,0.688-2.026-0.349
	c0.129-1.127,1.427-0.133,1.427-0.133c0.039-0.154,0.252-0.087,0.465-0.48c0.213-0.396,0.211-0.836,0.211-0.836
	c-1.358-0.08-1.025-0.919-1.025-0.919c0.544-0.774,1.294-0.052,1.294-0.052c0.342-0.155,0.12-0.908,0.12-0.908l0.16,0.001
	l0.11-0.389c0.087-0.491-0.325-0.585-0.325-0.585l-1.086-0.305c-0.484-0.749-1.072-0.564-1.691-0.584
	c-0.621-0.022-0.926-0.687-0.926-0.687c-0.188,0.168-0.245,0.876-0.245,0.876c-0.651,0.012-1.334-0.468-1.334-0.468
	c-0.015,0.354,0.32,0.756,0.32,0.756c-1.594,0.049-2.096,1.638-2.167,1.922c-0.068,0.283-0.354,0.471-0.354,0.471
	c0.286,0.041,0.764-0.125,0.764-0.125l-0.047,0.09c0,0-1.279,2.816-0.392,3.972c2.146,2.801,1.197,3.468,1.197,3.468
	c0.683,0.312,1.344-0.303,1.344-0.303c0.062,1.055,0.992,1.922,0.992,1.922c-0.31-0.684-0.003-1.188-0.003-1.188
	c1.462,2.025,0.903,2.915-0.403,5.337c-1.304,2.422-0.457,3.018-0.457,3.018c-0.438,0.104-0.73,0.365-1.32-0.516
	c-0.586-0.882,1.412-4.602,1.412-4.602c0.013-0.098,0.588-1.852-0.198-2.458c-0.784-0.607-1.687,0.279-1.687,0.279
	c-1.52,0.1-1.78,1.756-1.625,2.419c0.157,0.67,0.269,1.164,0.269,1.164c0.429-0.043,0.689-1.398,0.689-1.398
	c0.209,0.069,0.414,0.819,0.414,0.819c0.319-0.138,0.328-1.586,0.328-1.586c0.302,0.16,0.287,1.024,0.287,1.024
	c0.314-0.401,0.069-2.204,0.069-2.204c1.128-0.616,1.195,0.661,1.156,0.998c-0.131,1.149-1.865,3.918-1.604,5.459
	c0.259,1.544,1.798,1.304,1.798,1.304s0.155-0.26,0.66,1.394c0.583,1.903-1.364,2.112-1.364,2.112l0.604,0.302
	c-0.579,0.265-1.326,1.194-1.247,3.054c0.077,1.859,2.461,1.301,2.794,1.072c0.441-0.304,1.15-0.191,1.15-0.191l0.15-0.221
	c0.173-1.002-0.732-0.839-0.732-0.839l0.367-0.193c-0.176-0.486-0.887-0.138-0.887-0.138l0.022-0.176
	c-1.04-0.339-1.218,0.864-1.218,0.864c-1.252-1.494-0.479-2.316,2.053-3.069c2.534-0.75,1.791-3.966,1.791-3.966
	c0.257,0.033,1.239-0.702,1.239-0.702c-0.027,2.536-0.806,2.959-0.958,3.018c0.271-0.089,1.986,0.458,1.986,0.458
	c3.398,0.466,4.35-1.097,4.242-1.353c-0.078-0.187-0.201-0.196-0.262-0.188c0.223-0.045,0.202-0.263,0.202-0.263
	c0.042-0.315-0.604-0.301-0.604-0.301c0.08-0.151,0.158-0.137,0.158-0.137c-1.303-0.94-1.844,0.861-1.844,0.861
	c-0.58,0.145-1.998-0.082-1.998-0.082c-0.261-0.619,1.122-1.945,1.122-1.945s2.117-1.41,0.447-3.4
	c-1.667-1.989-4.121,0.603-4.121,0.603c0.284-1.23,1.727-2.104,2.747-3.136c1.022-1.033,0.667-2.909,0.667-2.909l0.977-0.093
	c-0.573-4.338,1.373-5.229,1.5-5.433c0.127-0.204,0.91-0.202,0.91-0.202C49.106,8.188,48.69,7.53,48.69,7.53
	c0.378-0.133,0.745,0.299,0.745,0.299C49.853,6.637,48.59,6.753,48.59,6.753z"/>
<path fill="#A38977" d="M42.574,26.016c-0.009,0.003-0.02,0.005-0.026,0.008C42.548,26.024,42.558,26.022,42.574,26.016z"/>
<path fill="#FFFFFF" d="M40.522,4.662c0,0,0.098,0.174-0.031,0.237c-0.131,0.063-0.328,0.197-0.538,0.109
	c-0.21-0.086-0.145-0.281-0.145-0.281L40.522,4.662z"/>
<path fill="#A38977" d="M65.571,26.054c0.018,0.007,0.027,0.009,0.027,0.009C65.593,26.059,65.58,26.058,65.571,26.054z"/>
<path fill="#A38977" d="M71.778,15.736c0,0-0.901-0.888-1.688-0.28c-0.784,0.605-0.209,2.36-0.197,2.46c0,0,1.999,3.718,1.41,4.6
	c-0.589,0.88-0.884,0.618-1.32,0.515c0,0,0.849-0.594-0.455-3.016c-1.307-2.421-1.864-3.314-0.404-5.336
	c0,0,0.307,0.502-0.004,1.187c0,0,0.932-0.869,0.994-1.922c0,0,0.661,0.613,1.343,0.302c0,0-0.949-0.667,1.197-3.468
	c0.888-1.157-0.391-3.972-0.391-3.972l-0.048-0.092c0,0,0.478,0.165,0.765,0.127c0,0-0.285-0.189-0.355-0.471
	c-0.069-0.283-0.571-1.873-2.166-1.922c0,0,0.336-0.4,0.321-0.754c0,0-0.685,0.479-1.336,0.468c0,0-0.058-0.706-0.244-0.878
	c0,0-0.306,0.666-0.927,0.688c-0.618,0.02-1.206-0.162-1.69,0.585l-1.088,0.303c0,0-0.408,0.095-0.324,0.586l0.111,0.388
	l0.163-0.002c0,0-0.223,0.755,0.117,0.909c0,0,0.75-0.722,1.294,0.053c0,0,0.333,0.841-1.023,0.918c0,0-0.002,0.444,0.21,0.838
	c0.213,0.394,0.425,0.326,0.467,0.482c0,0,1.295-0.995,1.426,0.131c0.116,1.039-1.608,1.098-2.027,0.349
	c0,0-0.257,0.638-0.424,0.739c0,0-0.172,0.047-0.464,0.04c-0.432-0.067-1.078-0.413-1.779-1.648
	c-0.236-0.659-0.585-1.337-1.073-1.636c-0.85-0.521-1.185-0.285-1.319-0.078c-0.369-0.358-0.823-0.554-1.486-0.395
	c0,0,0.195,0.116,0.194,0.257c0,0-1.262-0.115-0.845,1.077c0,0,0.366-0.431,0.746-0.298c0,0-0.417,0.658-0.014,0.965
	c0,0,0.784-0.003,0.912,0.202c0.126,0.204,2.075,1.094,1.5,5.434l0.979,0.092c0,0-0.357,1.875,0.666,2.909
	c1.021,1.032,2.462,1.907,2.745,3.137c0,0-2.455-2.593-4.122-0.602c-1.668,1.987,0.446,3.399,0.446,3.399s1.383,1.326,1.121,1.942
	c0,0-1.416,0.226-1.997,0.083c0,0-0.54-1.798-1.845-0.862c0,0,0.08-0.011,0.158,0.139c0,0-0.645-0.014-0.604,0.302
	c0,0-0.021,0.216,0.2,0.263c-0.062-0.009-0.182,0-0.259,0.186c-0.109,0.256,0.841,1.82,4.238,1.351c0,0,1.711-0.543,1.986-0.455
	c-0.155-0.062-0.93-0.489-0.955-3.019c0,0,0.981,0.736,1.239,0.701c0,0-0.743,3.217,1.79,3.968c2.532,0.752,3.305,1.575,2.053,3.067
	c0,0-0.179-1.205-1.22-0.865l0.024,0.18c0,0-0.711-0.348-0.889,0.137l0.368,0.194c0,0-0.905-0.163-0.734,0.838l0.15,0.224
	c0,0,0.709-0.115,1.15,0.188c0.331,0.227,2.72,0.788,2.796-1.071c0.075-1.862-0.668-2.788-1.249-3.054l0.606-0.301
	c0,0-1.945-0.214-1.365-2.112c0.506-1.656,0.66-1.394,0.66-1.394s1.541,0.238,1.8-1.305c0.259-1.542-1.474-4.311-1.607-5.46
	c-0.036-0.336,0.031-1.611,1.157-0.996c0,0-0.245,1.803,0.068,2.202c0,0-0.013-0.86,0.288-1.021c0,0,0.01,1.446,0.329,1.585
	c0,0,0.204-0.751,0.416-0.818c0,0,0.259,1.353,0.687,1.396c0,0,0.114-0.492,0.271-1.162C73.559,17.492,73.3,15.836,71.778,15.736z"
	/>
<path fill="none" stroke="#FFFFFF" stroke-width="0.3584" d="M68.575,4.875c-0.89-0.345-1.653-0.022-1.38-0.08L40.952,4.758
	c0.273,0.057-0.489-0.265-1.381,0.079"/>
<path fill="#FFFFFF" d="M67.626,4.699c0,0-0.099,0.175,0.031,0.238c0.129,0.064,0.328,0.199,0.537,0.11
	c0.211-0.088,0.144-0.282,0.144-0.282L67.626,4.699z"/>
<path fill="#BD0926" d="M54.609,4.789c0-0.002-0.002-0.003-0.002-0.004h0.919c0.003-0.018,0.006-0.051,0.006-0.1V4.526V4.375
	c0-0.048-0.003-0.082-0.006-0.103c-0.034-0.003-0.072-0.005-0.116-0.003c-0.043,0.002-0.087,0.003-0.129,0.006
	c-0.04,0.003-0.078,0.001-0.114-0.002c-0.038-0.003-0.063-0.018-0.079-0.044c-0.023-0.116-0.013-0.215,0.032-0.297
	c0.046-0.084,0.104-0.15,0.182-0.197c0.073-0.043,0.156-0.07,0.245-0.076c0.09-0.006,0.168,0.009,0.234,0.05
	c0.066,0.04,0.112,0.102,0.138,0.187c0.024,0.086,0.012,0.196-0.039,0.333c0.188-0.008,0.338-0.058,0.454-0.156
	c0.114-0.095,0.193-0.209,0.242-0.343c0.048-0.133,0.063-0.275,0.045-0.427c-0.014-0.152-0.062-0.287-0.139-0.406
	c-0.077-0.119-0.182-0.212-0.319-0.28c-0.133-0.071-0.295-0.086-0.481-0.055c-0.172,0.031-0.311,0.101-0.414,0.213
	c-0.107,0.113-0.195,0.248-0.264,0.405c-0.067,0.158-0.121,0.333-0.163,0.524c-0.039,0.191-0.077,0.38-0.114,0.568h-0.193
	c-0.032-0.15-0.043-0.297-0.027-0.439c0.015-0.145,0.043-0.288,0.084-0.427c0.042-0.143,0.089-0.283,0.149-0.423
	c0.059-0.139,0.116-0.277,0.172-0.417c0.054-0.138,0.104-0.278,0.145-0.416c0.039-0.14,0.063-0.279,0.071-0.423
	c0.008-0.178-0.011-0.347-0.055-0.51c-0.043-0.163-0.104-0.316-0.182-0.462c-0.074-0.145-0.166-0.279-0.27-0.404
	C54.518,0.224,54.407,0.11,54.289,0c-0.115,0.11-0.224,0.224-0.33,0.351c-0.104,0.125-0.193,0.259-0.271,0.404
	c-0.075,0.146-0.137,0.299-0.181,0.462c-0.043,0.163-0.061,0.333-0.054,0.51c0.011,0.214,0.055,0.423,0.14,0.631
	c0.081,0.208,0.166,0.417,0.25,0.625c0.086,0.211,0.153,0.423,0.207,0.634c0.051,0.212,0.054,0.43,0.003,0.655h-0.199
	c-0.037-0.188-0.076-0.376-0.116-0.568c-0.039-0.191-0.093-0.366-0.162-0.524c-0.068-0.157-0.156-0.292-0.263-0.405
	c-0.104-0.113-0.244-0.182-0.415-0.213c-0.186-0.032-0.348-0.016-0.481,0.055c-0.136,0.067-0.241,0.161-0.318,0.28
	c-0.078,0.119-0.124,0.253-0.14,0.406c-0.019,0.151-0.004,0.294,0.047,0.427c0.046,0.133,0.127,0.248,0.242,0.343
	C52.362,4.17,52.512,4.22,52.7,4.228c-0.054-0.137-0.067-0.247-0.041-0.333c0.027-0.084,0.074-0.147,0.142-0.187
	c0.067-0.042,0.145-0.057,0.233-0.05c0.088,0.006,0.172,0.033,0.249,0.076c0.077,0.047,0.137,0.112,0.182,0.197
	c0.043,0.082,0.055,0.181,0.033,0.297c-0.018,0.026-0.042,0.041-0.078,0.044c-0.035,0.004-0.073,0.005-0.115,0.002
	c-0.041-0.002-0.083-0.004-0.128-0.006c-0.042-0.001-0.083,0-0.116,0.003c-0.003,0.021-0.007,0.055-0.009,0.103
	c-0.002,0.047-0.003,0.1-0.003,0.151c0,0.056,0.001,0.108,0.003,0.158c0.002,0.049,0.006,0.082,0.009,0.1h0.912
	c0,0.001-0.001,0.002-0.001,0.004H54.609z"/>
<path fill="#BD0926" d="M59.674,4.789c0-0.002,0-0.003,0-0.004h0.917c0.004-0.018,0.007-0.051,0.007-0.1V4.526V4.375
	c0-0.048-0.003-0.082-0.007-0.103c-0.033-0.003-0.072-0.005-0.115-0.003c-0.044,0.002-0.087,0.003-0.127,0.006
	c-0.042,0.003-0.081,0.001-0.116-0.002c-0.037-0.003-0.063-0.018-0.079-0.044c-0.024-0.116-0.015-0.215,0.033-0.297
	c0.045-0.084,0.105-0.15,0.179-0.197c0.075-0.043,0.158-0.07,0.247-0.076c0.089-0.006,0.168,0.009,0.234,0.05
	c0.065,0.04,0.111,0.102,0.137,0.187c0.024,0.086,0.012,0.196-0.038,0.333c0.188-0.008,0.337-0.058,0.453-0.156
	c0.113-0.095,0.195-0.209,0.243-0.343c0.048-0.133,0.062-0.275,0.046-0.427c-0.017-0.152-0.063-0.287-0.142-0.406
	c-0.074-0.119-0.181-0.212-0.316-0.28c-0.135-0.071-0.296-0.086-0.484-0.055c-0.171,0.031-0.307,0.101-0.412,0.213
	c-0.107,0.113-0.195,0.248-0.263,0.405c-0.069,0.158-0.122,0.333-0.164,0.524c-0.039,0.191-0.075,0.38-0.114,0.568h-0.193
	c-0.032-0.15-0.042-0.297-0.026-0.439c0.012-0.145,0.041-0.288,0.082-0.427c0.043-0.143,0.092-0.283,0.151-0.423
	c0.059-0.139,0.115-0.277,0.172-0.417c0.054-0.138,0.103-0.278,0.143-0.416c0.04-0.14,0.064-0.279,0.072-0.423
	c0.007-0.178-0.01-0.347-0.055-0.51c-0.043-0.163-0.103-0.316-0.183-0.462c-0.074-0.145-0.164-0.279-0.268-0.404
	C59.581,0.224,59.471,0.11,59.354,0c-0.115,0.11-0.225,0.224-0.33,0.351c-0.103,0.125-0.194,0.259-0.271,0.404
	c-0.075,0.146-0.137,0.299-0.181,0.462c-0.043,0.163-0.061,0.333-0.051,0.51c0.008,0.214,0.052,0.423,0.137,0.631
	c0.083,0.208,0.168,0.417,0.251,0.625c0.086,0.211,0.154,0.423,0.206,0.634c0.053,0.212,0.053,0.43,0.003,0.655H58.92
	c-0.038-0.188-0.078-0.376-0.116-0.568c-0.04-0.191-0.093-0.366-0.162-0.524c-0.069-0.157-0.155-0.292-0.262-0.405
	s-0.244-0.182-0.415-0.213c-0.188-0.032-0.349-0.016-0.483,0.055c-0.136,0.067-0.241,0.161-0.317,0.28
	c-0.077,0.119-0.124,0.253-0.14,0.406c-0.019,0.151-0.004,0.294,0.046,0.427c0.05,0.133,0.13,0.248,0.244,0.343
	c0.113,0.098,0.265,0.147,0.45,0.156c-0.053-0.137-0.065-0.247-0.039-0.333c0.025-0.084,0.074-0.147,0.139-0.187
	c0.067-0.042,0.146-0.057,0.235-0.05c0.089,0.006,0.173,0.033,0.249,0.076c0.075,0.047,0.138,0.112,0.181,0.197
	c0.043,0.082,0.056,0.181,0.034,0.297c-0.018,0.026-0.042,0.041-0.077,0.044c-0.035,0.004-0.075,0.005-0.116,0.002
	c-0.041-0.002-0.083-0.004-0.128-0.006c-0.042-0.001-0.082,0-0.115,0.003c-0.003,0.021-0.008,0.055-0.009,0.103
	c-0.002,0.047-0.004,0.1-0.004,0.151c0,0.056,0.002,0.108,0.004,0.158c0.001,0.049,0.006,0.082,0.009,0.1h0.912
	c0,0.001,0,0.002,0,0.004H59.674z"/>
<path fill="#BD0926" d="M48.156,33.025l0.434-0.004c0.435-0.003,0.522-0.045,0.518-0.475l-0.018-2.166
	c-0.005-0.529-0.2-0.646-0.961-0.645l-0.001-0.094c0.673-0.042,1.106-0.174,1.312-0.429l0.138,0l0.026,3.33
	c0.003,0.418,0.086,0.471,0.482,0.467l0.371-0.003v0.083l-2.302,0.018V33.025z"/>
<path fill="#BD0926" d="M51.559,32.999l0.389-0.005c0.409-0.003,0.478-0.079,0.475-0.462l-0.005-0.576l-1.521,0.012l-0.004-0.318
	l1.754-2.461l0.228-0.001l0.02,2.536l0.748-0.007l0.002,0.23l-0.748,0.005l0.004,0.525c0.003,0.405,0.062,0.511,0.444,0.508
	l0.309-0.003v0.083l-2.093,0.017L51.559,32.999z M52.399,29.69l-1.405,1.971v0.076l1.422-0.011L52.399,29.69z"/>
<path fill="#BD0926" d="M56.312,32.066c0.005,0.611-0.482,1.051-1.244,1.057c-0.71,0.006-1.185-0.38-1.189-0.85
	c-0.002-0.271,0.161-0.442,0.381-0.444c0.163-0.001,0.276,0.11,0.278,0.281c0.002,0.151-0.085,0.254-0.267,0.337
	c-0.094,0.042-0.17,0.042-0.169,0.137c0.001,0.152,0.375,0.455,0.871,0.451c0.553-0.004,0.796-0.329,0.791-1
	c-0.005-0.624-0.266-0.945-0.73-0.941c-0.146,0-0.277,0.066-0.378,0.067c-0.094,0-0.138-0.011-0.138-0.059
	c-0.002-0.07,0.074-0.083,0.237-0.083c0.712-0.007,0.955-0.244,0.948-0.956c-0.004-0.523-0.257-0.786-0.741-0.782
	c-0.46,0.003-0.76,0.229-0.759,0.429c0.001,0.077,0.063,0.071,0.165,0.117c0.14,0.063,0.196,0.151,0.197,0.281
	c0.002,0.171-0.104,0.283-0.274,0.285s-0.315-0.15-0.318-0.392c-0.002-0.441,0.435-0.816,1.02-0.82
	c0.736-0.005,1.236,0.402,1.24,0.896c0.004,0.442-0.358,0.815-0.968,0.938l0.001,0.047C55.933,31.186,56.307,31.554,56.312,32.066z"
	/>
<path fill="#BD0926" d="M57.003,32.955l0.435-0.004c0.435-0.004,0.521-0.046,0.519-0.475l-0.018-2.165
	c-0.005-0.53-0.2-0.646-0.962-0.646v-0.094c0.673-0.041,1.105-0.174,1.312-0.428l0.139-0.001l0.025,3.33
	c0.003,0.417,0.086,0.47,0.482,0.468l0.37-0.004v0.082l-2.3,0.018L57.003,32.955z"/>
<path fill="#A38977" d="M18.101,56.494c-0.47,0.004-0.796-0.365-0.801-0.997c-0.001-0.164,0.025-0.384,0.068-0.659l-0.089-0.027
	c-0.475,1.13-1.146,1.699-1.955,1.706c-1.012,0.008-1.798-0.88-1.809-2.212c-0.008-1.002,0.381-1.911,1.197-2.797
	c0.713-0.789,1.399-1.178,2.031-1.184c0.793-0.006,1.223,0.484,1.231,1.445c0,0.056,0,0.109,0,0.18l0.088,0.027l0.855-3.331
	c0.057-0.234,0.114-0.441,0.113-0.593c-0.004-0.48-0.402-0.642-1.253-0.635c-0.104,0.001-0.207,0.001-0.309,0.002l-0.001-0.178
	l2.834-0.022l-2.169,7.928c-0.1,0.358-0.156,0.619-0.155,0.798c0.002,0.206,0.09,0.315,0.252,0.313
	c0.44-0.003,1.14-0.792,1.699-2.361l0.177,0.04C19.562,55.617,18.761,56.488,18.101,56.494z M16.698,55.488
	c0.624-0.896,1.111-2.467,1.102-3.606c-0.008-0.921-0.349-1.397-1.024-1.393c-0.412,0.003-0.864,0.295-1.197,0.833
	c-0.291,0.469-0.491,1.007-0.692,1.626c-0.3,0.965-0.426,1.721-0.422,2.229c0.007,0.769,0.333,1.165,0.905,1.16
	C15.838,56.333,16.306,56.041,16.698,55.488z"/>
<path fill="#A38977" d="M21.89,56.477c-1.072,0.01-1.931-0.89-1.942-2.223c-0.007-0.935,0.426-1.885,1.3-2.813
	c0.742-0.774,1.458-1.179,2.061-1.184c0.704-0.005,1.251,0.498,1.257,1.116c0.009,1.223-1.145,2.028-3.417,2.349
	c-0.158,0.51-0.228,0.963-0.224,1.348c0.006,0.783,0.362,1.192,0.979,1.188c0.881-0.007,1.843-0.743,2.684-2.22l0.177,0.096
	C23.895,55.679,22.859,56.47,21.89,56.477z M24.139,51.336c-0.004-0.521-0.36-0.89-0.815-0.885
	c-0.792,0.005-1.518,1.027-2.104,3.051C23.111,53.28,24.148,52.448,24.139,51.336z"/>
</svg>
